<svg aria-hidden="true" style="position: absolute; width: 0; height: 0; overflow: hidden;" version="1.1"
    xmlns="http://www.w3.org/2000/svg" xmlns:xlink="http://www.w3.org/1999/xlink">
    <defs>
        <symbol id="icon-youtube" viewBox="0 0 32 32">
            <path fill="#fff" style="fill: var(--color1, #fff)" opacity="0.8"
                d="M24.24 6c-1.36-0.080-4.16-0.16-8.4-0.16h-0.56c-4.080 0-6.8 0.080-8.16 0.24-1.84 0.16-3.12 0.64-3.84 1.28-0.64 0.56-1.12 1.6-1.28 2.96-0.080 0.88-0.16 2.72-0.16 5.52v0.4c0 2.64 0.080 4.48 0.24 5.36 0.24 1.28 0.64 2.24 1.44 2.8 0.8 0.64 2.16 1.040 4.080 1.2 1.36 0.080 4.16 0.16 8.4 0.16h0.56c4.080 0 6.8-0.080 8.16-0.24 1.84-0.16 3.12-0.64 3.84-1.28 0.64-0.56 1.12-1.6 1.28-2.96 0.080-0.88 0.16-2.72 0.16-5.52v-0.4c0-2.64-0.080-4.48-0.24-5.36-0.24-1.28-0.64-2.24-1.44-2.8-0.8-0.64-2.16-1.040-4.080-1.2zM21.12 15.84l-8.8 5.28v-10.56l8.8 5.28z">
            </path>
        </symbol>
        <symbol id="icon-facebook" viewBox="0 0 32 32">
            <path fill="#fff" style="fill: var(--color1, #fff)" opacity="0.8"
                d="M19.52 4.64h0.96v3.6h-1.2c-0.48 0-0.96 0-1.2 0.24s-0.24 0.48-0.24 1.040v1.28h2.64v3.040h-2.64v13.2h-4.080v-13.28h-2.16v-3.040h2.16v-1.040c0-1.76 0.24-3.040 0.72-3.6 0.72-1.040 2.16-1.52 4.32-1.52 0.24 0.080 0.48 0.080 0.72 0.080z">
            </path>
        </symbol>
        <symbol id="icon-instagram" viewBox="0 0 32 32">
            <path fill="#fff" style="fill: var(--color1, #fff)" opacity="0.8"
                d="M28.718 10.755c-0.016-1.134-0.233-2.212-0.617-3.207l0.021 0.063c-0.682-1.722-2.021-3.059-3.7-3.722l-0.044-0.015c-0.921-0.356-1.985-0.573-3.097-0.596l-0.010-0c-1.367-0.061-1.801-0.078-5.271-0.078-3.472 0-3.917 0-5.274 0.078-1.063 0.023-2.112 0.223-3.106 0.597-1.723 0.678-3.062 2.015-3.727 3.693l-0.015 0.044c-0.357 0.919-0.574 1.981-0.595 3.091l-0 0.009c-0.062 1.367-0.080 1.8-0.080 5.265 0 3.466 0 3.909 0.080 5.265 0.021 1.063 0.222 2.11 0.594 3.104 0.682 1.721 2.022 3.058 3.701 3.721l0.044 0.015c0.917 0.369 1.98 0.6 3.091 0.637l0.015 0c1.369 0.062 1.803 0.080 5.274 0.080 3.472 0 3.917 0 5.274-0.080 1.122-0.023 2.187-0.239 3.172-0.616l-0.064 0.022c1.722-0.68 3.061-2.016 3.727-3.693l0.016-0.044c0.374-0.993 0.575-2.040 0.595-3.103 0.062-1.366 0.080-1.799 0.080-5.266-0.002-3.465-0.002-3.905-0.082-5.264zM15.989 22.531c-0.002 0-0.004 0-0.006 0-3.625 0-6.563-2.937-6.566-6.561v-0c0.002-3.624 2.94-6.561 6.565-6.561 0.002 0 0.005 0 0.007 0h-0c3.629 0 6.571 2.937 6.571 6.56-0.003 3.625-2.942 6.562-6.567 6.562-0.002 0-0.003 0-0.005 0h0zM22.823 10.696c-0.845 0-1.53-0.685-1.53-1.53s0.685-1.53 1.53-1.53v0c0.012-0 0.027-0.001 0.042-0.001 0.845 0 1.53 0.685 1.53 1.53s-0.685 1.53-1.53 1.53c-0.015 0-0.029-0-0.044-0.001l0.002 0z">
            </path>
            <path fill="#fff" style="fill: var(--color1, #fff)" opacity="0.8"
                d="M15.992 19.976c0.020 0 0.044 0.001 0.068 0.001 2.212 0 4.005-1.793 4.005-4.005s-1.793-4.005-4.005-4.005c-0.024 0-0.048 0-0.071 0.001l0.004-0c-2.182 0.038-3.937 1.816-3.937 4.004s1.755 3.966 3.933 4.004l0.004 0z">
            </path>
        </symbol>
        <symbol id="icon-big-logo" viewBox="0 0 28 32">
            <path  d="M21.073 16.002l-3.834-8.783-0.836-0.579-0.98-0.312-1.326-0.357-1.557 0.669-1.038 0.579 3.92 8.783h5.65z">
            </path>
            <path  d="M7.314 13.065l3.834 8.803 0.836 0.581 0.98 0.313 1.326 0.357 1.556-0.67 1.038-0.581-3.92-8.803h-5.65z">
            </path>
            <path  d="M11.297 7.335l-5.952 8.604 5.952 0.064 4.303-8.667c0.302-0.887 1.247-0.369 1.682 0-1.858-3.405-4.764-1.419-5.985 0zM17.066 21.756l5.952-8.604-5.952-0.064-4.303 8.667c-0.302 0.887-1.247 0.369-1.682 0 1.858 3.405 4.764 1.419 5.985 0z">
            </path>
        </symbol>
        <!-- Hero icons -->
        <symbol id="slider-btn-prev" viewBox="0 0 32 32">
            <path stroke-linejoin="miter" stroke-linecap="butt" stroke-miterlimit="4" stroke-width="0.9412"
                d="M8.472 0.471h15.061c4.419 0 8.001 3.582 8.001 8.001v15.061c0 4.419-3.582 8.001-8.001 8.001h-15.061c-4.419 0-8.001-3.582-8.001-8.001v-15.061c0-4.419 3.582-8.001 8.001-8.001z">
            </path>
            <path stroke-linejoin="round" stroke-linecap="round" stroke-miterlimit="4" stroke-width="0.9412"
                d="M18.12 20.238l-4.236-4.236 4.236-4.236"></path>
        </symbol>
        <symbol id="slider-btn-next" viewBox="0 0 32 32">
            <path stroke-linejoin="miter" stroke-linecap="butt" stroke-miterlimit="4" stroke-width="0.9412"
                d="M8.472 0.471h15.061c4.419 0 8.001 3.582 8.001 8.001v15.061c0 4.419-3.582 8.001-8.001 8.001h-15.061c-4.419 0-8.001-3.582-8.001-8.001v-15.061c0-4.419 3.582-8.001 8.001-8.001z">
            </path>
            <path stroke-linejoin="round" stroke-linecap="round" stroke-miterlimit="4" stroke-width="0.9412"
                d="M13.884 20.238l4.236-4.236-4.236-4.236"></path>
        </symbol>
    </defs>
    </svg>
